# xmcd
#
# Track frame offsets: 
#        187
#        12475
#        23202
#        35382
#        47005
#        63010
#        74047
#        86290
#        102092
#        111685
#        126927
#        140672
#        164317
#
# Disc length: 2373 seconds
#
# Revision: 2
# Processed by: cddbd v1.5.2PL0 Copyright (c) Steve Scherf et al.
# Submitted via: ExactAudioCopy v0.95b4
#
DISCID=b409430d
DTITLE=Mose Allison - Pure Mose
DYEAR=1994
DGENRE=Jazz
TTITLE0=Lost Mind
TTITLE1=Wildman On The Loose
TTITLE2=Your Molecular Structure
TTITLE3=It Feels So Good
TTITLE4=Swingin' Machine
TTITLE5=You Can Count On Me To Do My Part
TTITLE6=I Live The Life I Love
TTITLE7=If You're Goin' Up To The City
TTITLE8=I Ain't Got Nothin' But The Blues
TTITLE9=Hey Good Lookin'
TTITLE10=Meet Me At No Special Place
TTITLE11=7th Son
TTITLE12=Wildman and Show Closer
EXTD=
EXTT0=
EXTT1=
EXTT2=
EXTT3=
EXTT4=
EXTT5=
EXTT6=
EXTT7=
EXTT8=
EXTT9=
EXTT10=
EXTT11=
EXTT12=
PLAYORDER=
